<?xml version="1.0" encoding="UTF-8"?>
<!--Generator: Apple Native CoreSVG 175-->
<!DOCTYPE svg
PUBLIC "-//W3C//DTD SVG 1.1//EN"
       "http://www.w3.org/Graphics/SVG/1.1/DTD/svg11.dtd">
<svg version="1.1" xmlns="http://www.w3.org/2000/svg" xmlns:xlink="http://www.w3.org/1999/xlink" width="3300" height="2200">
 <!--glyph: "uni10016E.medium", point size: 100.0, font version: "17.1d1e1", template writer version: "65.1"-->
 <g id="Notes">
  <rect height="2200" id="artboard" style="fill:white;opacity:1" width="3300" x="0" y="0"/>
  <line style="fill:none;stroke:black;opacity:1;stroke-width:0.5;" x1="263" x2="3036" y1="292" y2="292"/>
  <text style="stroke:none;fill:black;font-family:sans-serif;font-size:13;font-weight:bold;" transform="matrix(1 0 0 1 263 322)">Weight/Scale Variations</text>
  <text style="stroke:none;fill:black;font-family:sans-serif;font-size:13;text-anchor:middle;" transform="matrix(1 0 0 1 559.711 322)">Ultralight</text>
  <text style="stroke:none;fill:black;font-family:sans-serif;font-size:13;text-anchor:middle;" transform="matrix(1 0 0 1 856.422 322)">Thin</text>
  <text style="stroke:none;fill:black;font-family:sans-serif;font-size:13;text-anchor:middle;" transform="matrix(1 0 0 1 1153.13 322)">Light</text>
  <text style="stroke:none;fill:black;font-family:sans-serif;font-size:13;text-anchor:middle;" transform="matrix(1 0 0 1 1449.84 322)">Regular</text>
  <text style="stroke:none;fill:black;font-family:sans-serif;font-size:13;text-anchor:middle;" transform="matrix(1 0 0 1 1746.56 322)">Medium</text>
  <text style="stroke:none;fill:black;font-family:sans-serif;font-size:13;text-anchor:middle;" transform="matrix(1 0 0 1 2043.27 322)">Semibold</text>
  <text style="stroke:none;fill:black;font-family:sans-serif;font-size:13;text-anchor:middle;" transform="matrix(1 0 0 1 2339.98 322)">Bold</text>
  <text style="stroke:none;fill:black;font-family:sans-serif;font-size:13;text-anchor:middle;" transform="matrix(1 0 0 1 2636.69 322)">Heavy</text>
  <text style="stroke:none;fill:black;font-family:sans-serif;font-size:13;text-anchor:middle;" transform="matrix(1 0 0 1 2933.4 322)">Black</text>
  <line style="fill:none;stroke:black;opacity:1;stroke-width:0.5;" x1="263" x2="3036" y1="1903" y2="1903"/>
  <g transform="matrix(1 0 0 1 263 1933)">
   <path d="M9.24805 0.830078Q10.8691 0.830078 12.2949 0.214844Q13.7207-0.400391 14.8096-1.49414Q15.8984-2.58789 16.5186-4.01367Q17.1387-5.43945 17.1387-7.05078Q17.1387-8.66211 16.5186-10.0879Q15.8984-11.5137 14.8047-12.6074Q13.7109-13.7012 12.2852-14.3164Q10.8594-14.9316 9.23828-14.9316Q7.62695-14.9316 6.20117-14.3164Q4.77539-13.7012 3.69141-12.6074Q2.60742-11.5137 1.9873-10.0879Q1.36719-8.66211 1.36719-7.05078Q1.36719-5.43945 1.9873-4.01367Q2.60742-2.58789 3.69629-1.49414Q4.78516-0.400391 6.21094 0.214844Q7.63672 0.830078 9.24805 0.830078ZM9.24805-0.654297Q7.91992-0.654297 6.7627-1.14746Q5.60547-1.64062 4.73145-2.51953Q3.85742-3.39844 3.36426-4.56055Q2.87109-5.72266 2.87109-7.05078Q2.87109-8.37891 3.35938-9.54102Q3.84766-10.7031 4.72168-11.582Q5.5957-12.4609 6.75293-12.9541Q7.91016-13.4473 9.23828-13.4473Q10.5762-13.4473 11.7334-12.9541Q12.8906-12.4609 13.7695-11.582Q14.6484-10.7031 15.1465-9.54102Q15.6445-8.37891 15.6445-7.05078Q15.6445-5.72266 15.1514-4.56055Q14.6582-3.39844 13.7842-2.51953Q12.9102-1.64062 11.748-1.14746Q10.5859-0.654297 9.24805-0.654297ZM5.6543-7.05078Q5.6543-6.72852 5.85938-6.52832Q6.06445-6.32812 6.40625-6.32812L8.51562-6.32812L8.51562-4.20898Q8.51562-3.88672 8.71094-3.67676Q8.90625-3.4668 9.23828-3.4668Q9.56055-3.4668 9.77051-3.67676Q9.98047-3.88672 9.98047-4.20898L9.98047-6.32812L12.0898-6.32812Q12.4219-6.32812 12.627-6.52832Q12.832-6.72852 12.832-7.05078Q12.832-7.38281 12.627-7.58789Q12.4219-7.79297 12.0898-7.79297L9.98047-7.79297L9.98047-9.90234Q9.98047-10.2344 9.77051-10.4443Q9.56055-10.6543 9.23828-10.6543Q8.90625-10.6543 8.71094-10.4443Q8.51562-10.2344 8.51562-9.90234L8.51562-7.79297L6.40625-7.79297Q6.06445-7.79297 5.85938-7.58789Q5.6543-7.38281 5.6543-7.05078Z"/>
  </g>
  <g transform="matrix(1 0 0 1 281.867 1933)">
   <path d="M11.709 2.91016Q13.75 2.91016 15.5518 2.12891Q17.3535 1.34766 18.7305-0.0292969Q20.1074-1.40625 20.8887-3.20801Q21.6699-5.00977 21.6699-7.05078Q21.6699-9.0918 20.8887-10.8936Q20.1074-12.6953 18.7305-14.0723Q17.3535-15.4492 15.5469-16.2305Q13.7402-17.0117 11.6992-17.0117Q9.6582-17.0117 7.85645-16.2305Q6.05469-15.4492 4.68262-14.0723Q3.31055-12.6953 2.5293-10.8936Q1.74805-9.0918 1.74805-7.05078Q1.74805-5.00977 2.5293-3.20801Q3.31055-1.40625 4.6875-0.0292969Q6.06445 1.34766 7.86621 2.12891Q9.66797 2.91016 11.709 2.91016ZM11.709 1.25Q9.98047 1.25 8.47656 0.605469Q6.97266-0.0390625 5.83496-1.17676Q4.69727-2.31445 4.05762-3.81836Q3.41797-5.32227 3.41797-7.05078Q3.41797-8.7793 4.05762-10.2832Q4.69727-11.7871 5.83008-12.9297Q6.96289-14.0723 8.4668-14.7119Q9.9707-15.3516 11.6992-15.3516Q13.4277-15.3516 14.9316-14.7119Q16.4355-14.0723 17.5781-12.9297Q18.7207-11.7871 19.3652-10.2832Q20.0098-8.7793 20.0098-7.05078Q20.0098-5.32227 19.3701-3.81836Q18.7305-2.31445 17.5928-1.17676Q16.4551-0.0390625 14.9463 0.605469Q13.4375 1.25 11.709 1.25ZM7.17773-7.05078Q7.17773-6.69922 7.41211-6.47461Q7.64648-6.25 8.01758-6.25L10.8887-6.25L10.8887-3.36914Q10.8887-2.99805 11.1133-2.76855Q11.3379-2.53906 11.6895-2.53906Q12.0605-2.53906 12.29-2.76855Q12.5195-2.99805 12.5195-3.36914L12.5195-6.25L15.4004-6.25Q15.7715-6.25 16.001-6.47461Q16.2305-6.69922 16.2305-7.05078Q16.2305-7.42188 16.001-7.65137Q15.7715-7.88086 15.4004-7.88086L12.5195-7.88086L12.5195-10.752Q12.5195-11.1328 12.29-11.3623Q12.0605-11.5918 11.6895-11.5918Q11.3379-11.5918 11.1133-11.3574Q10.8887-11.123 10.8887-10.752L10.8887-7.88086L8.01758-7.88086Q7.63672-7.88086 7.40723-7.65137Q7.17773-7.42188 7.17773-7.05078Z"/>
  </g>
  <g transform="matrix(1 0 0 1 305.646 1933)">
   <path d="M14.9707 5.66406Q17.0605 5.66406 18.96 5.01465Q20.8594 4.36523 22.4512 3.19336Q24.043 2.02148 25.2197 0.429688Q26.3965-1.16211 27.0459-3.06641Q27.6953-4.9707 27.6953-7.05078Q27.6953-9.14062 27.0459-11.04Q26.3965-12.9395 25.2197-14.5312Q24.043-16.123 22.4512-17.2998Q20.8594-18.4766 18.9551-19.126Q17.0508-19.7754 14.9609-19.7754Q12.8711-19.7754 10.9717-19.126Q9.07227-18.4766 7.48535-17.2998Q5.89844-16.123 4.72168-14.5312Q3.54492-12.9395 2.90039-11.04Q2.25586-9.14062 2.25586-7.05078Q2.25586-4.9707 2.90527-3.06641Q3.55469-1.16211 4.72656 0.429688Q5.89844 2.02148 7.49023 3.19336Q9.08203 4.36523 10.9814 5.01465Q12.8809 5.66406 14.9707 5.66406ZM14.9707 3.84766Q13.1641 3.84766 11.5283 3.2959Q9.89258 2.74414 8.53516 1.74805Q7.17773 0.751953 6.17676-0.610352Q5.17578-1.97266 4.62891-3.6084Q4.08203-5.24414 4.08203-7.05078Q4.08203-8.86719 4.62891-10.5029Q5.17578-12.1387 6.17188-13.501Q7.16797-14.8633 8.52539-15.8594Q9.88281-16.8555 11.5186-17.4023Q13.1543-17.9492 14.9609-17.9492Q16.7773-17.9492 18.4131-17.4023Q20.0488-16.8555 21.4111-15.8594Q22.7734-14.8633 23.7695-13.501Q24.7656-12.1387 25.3174-10.5029Q25.8691-8.86719 25.8691-7.05078Q25.8789-5.24414 25.332-3.6084Q24.7852-1.97266 23.7842-0.610352Q22.7832 0.751953 21.4209 1.74805Q20.0586 2.74414 18.4229 3.2959Q16.7871 3.84766 14.9707 3.84766ZM9.19922-7.05078Q9.19922-6.66992 9.45801-6.4209Q9.7168-6.17188 10.1172-6.17188L14.0625-6.17188L14.0625-2.2168Q14.0625-1.81641 14.3115-1.55762Q14.5605-1.29883 14.9512-1.29883Q15.3516-1.29883 15.6104-1.55273Q15.8691-1.80664 15.8691-2.2168L15.8691-6.17188L19.8242-6.17188Q20.2246-6.17188 20.4785-6.4209Q20.7324-6.66992 20.7324-7.05078Q20.7324-7.46094 20.4785-7.71484Q20.2246-7.96875 19.8242-7.96875L15.8691-7.96875L15.8691-11.9141Q15.8691-12.3242 15.6104-12.583Q15.3516-12.8418 14.9512-12.8418Q14.5605-12.8418 14.3115-12.583Q14.0625-12.3242 14.0625-11.9141L14.0625-7.96875L10.1172-7.96875Q9.70703-7.96875 9.45312-7.71484Q9.19922-7.46094 9.19922-7.05078Z"/>
  </g>
  <text style="stroke:none;fill:black;font-family:sans-serif;font-size:13;font-weight:bold;" transform="matrix(1 0 0 1 263 1953)">Design Variations</text>
  <text style="stroke:none;fill:black;font-family:sans-serif;font-size:13;" transform="matrix(1 0 0 1 263 1971)">Symbols are supported in up to nine weights and three scales.</text>
  <text style="stroke:none;fill:black;font-family:sans-serif;font-size:13;" transform="matrix(1 0 0 1 263 1989)">For optimal layout with text and other symbols, vertically align</text>
  <text style="stroke:none;fill:black;font-family:sans-serif;font-size:13;" transform="matrix(1 0 0 1 263 2007)">symbols with the adjacent text.</text>
  <line style="fill:none;stroke:#00AEEF;stroke-width:0.5;opacity:1.0;" x1="776" x2="776" y1="1919" y2="1933"/>
  <g transform="matrix(1 0 0 1 776 1933)">
   <path d="M3.31055 0.15625Q3.70117 0.15625 3.91602-0.00976562Q4.13086-0.175781 4.26758-0.585938L5.52734-4.0332L11.2891-4.0332L12.5488-0.585938Q12.6855-0.175781 12.9004-0.00976562Q13.1152 0.15625 13.4961 0.15625Q13.8867 0.15625 14.1162-0.0585938Q14.3457-0.273438 14.3457-0.644531Q14.3457-0.869141 14.2383-1.17188L9.6582-13.3691Q9.48242-13.8184 9.17969-14.043Q8.87695-14.2676 8.4082-14.2676Q7.5-14.2676 7.17773-13.3789L2.59766-1.16211Q2.49023-0.859375 2.49023-0.634766Q2.49023-0.263672 2.70996-0.0537109Q2.92969 0.15625 3.31055 0.15625ZM6.00586-5.51758L8.37891-12.0898L8.42773-12.0898L10.8008-5.51758Z"/>
  </g>
  <line style="fill:none;stroke:#00AEEF;stroke-width:0.5;opacity:1.0;" x1="793.197" x2="793.197" y1="1919" y2="1933"/>
  <text style="stroke:none;fill:black;font-family:sans-serif;font-size:13;font-weight:bold;" transform="matrix(1 0 0 1 776 1953)">Margins</text>
  <text style="stroke:none;fill:black;font-family:sans-serif;font-size:13;" transform="matrix(1 0 0 1 776 1971)">Leading and trailing margins on the left and right side of each symbol</text>
  <text style="stroke:none;fill:black;font-family:sans-serif;font-size:13;" transform="matrix(1 0 0 1 776 1989)">can be adjusted by modifying the x-location of the margin guidelines.</text>
  <text style="stroke:none;fill:black;font-family:sans-serif;font-size:13;" transform="matrix(1 0 0 1 776 2007)">Modifications are automatically applied proportionally to all</text>
  <text style="stroke:none;fill:black;font-family:sans-serif;font-size:13;" transform="matrix(1 0 0 1 776 2025)">scales and weights.</text>
  <g transform="matrix(1 0 0 1 1289 1933)">
   <path d="M2.8418 1.86523L4.54102 3.57422Q5.18555 4.22852 5.90332 4.17969Q6.62109 4.13086 7.31445 3.35938L18.0078-8.42773L17.041-9.4043L6.42578 2.27539Q6.16211 2.57812 5.89355 2.61719Q5.625 2.65625 5.27344 2.30469L4.10156 1.14258Q3.75 0.791016 3.79395 0.522461Q3.83789 0.253906 4.14062-0.0195312L15.6152-10.8203L14.6387-11.7871L3.04688-0.898438Q2.30469-0.214844 2.25098 0.498047Q2.19727 1.21094 2.8418 1.86523ZM9.25781-16.3281Q8.94531-16.0254 8.90625-15.6348Q8.86719-15.2441 9.04297-14.9512Q9.21875-14.6777 9.55566-14.541Q9.89258-14.4043 10.3809-14.5215Q11.4746-14.7754 12.5977-14.7314Q13.7207-14.6875 14.7949-13.9844L14.209-12.5293Q13.9551-11.9043 14.0674-11.4404Q14.1797-10.9766 14.5801-10.5664L16.875-8.25195Q17.2363-7.88086 17.5781-7.82227Q17.9199-7.76367 18.3398-7.8418L19.4043-8.03711L20.0684-7.36328L20.0293-6.80664Q20-6.43555 20.1221-6.12305Q20.2441-5.81055 20.6055-5.44922L21.3672-4.70703Q21.7285-4.3457 22.1533-4.33105Q22.5781-4.31641 22.9297-4.66797L25.8398-7.58789Q26.1914-7.93945 26.1816-8.35449Q26.1719-8.76953 25.8105-9.13086L25.0391-9.89258Q24.6875-10.2539 24.3799-10.3857Q24.0723-10.5176 23.7109-10.4883L23.1348-10.4395L22.4902-11.0742L22.7344-12.1973Q22.832-12.6172 22.6953-12.9834Q22.5586-13.3496 22.1191-13.7891L19.9219-15.9766Q18.6719-17.2168 17.2607-17.8369Q15.8496-18.457 14.4189-18.4814Q12.9883-18.5059 11.665-17.959Q10.3418-17.4121 9.25781-16.3281ZM10.752-15.957Q11.6602-16.6211 12.7002-16.9043Q13.7402-17.1875 14.8047-17.085Q15.8691-16.9824 16.8701-16.5137Q17.8711-16.0449 18.7012-15.2051L21.1328-12.793Q21.3086-12.6172 21.3525-12.4512Q21.3965-12.2852 21.3379-12.0312L21.0156-10.5469L22.5195-9.0625L23.5059-9.12109Q23.6914-9.13086 23.7891-9.09668Q23.8867-9.0625 24.0332-8.91602L24.6094-8.33984L22.168-5.89844L21.5918-6.47461Q21.4453-6.62109 21.4062-6.71875Q21.3672-6.81641 21.377-7.01172L21.4453-7.98828L19.9512-9.47266L18.4277-9.21875Q18.1836-9.16992 18.042-9.2041Q17.9004-9.23828 17.7148-9.41406L15.7129-11.416Q15.5176-11.5918 15.4932-11.7529Q15.4688-11.9141 15.5859-12.1875L16.4648-14.2773Q15.293-15.3711 13.8281-15.791Q12.3633-16.2109 10.8398-15.7617Q10.7227-15.7324 10.6885-15.8057Q10.6543-15.8789 10.752-15.957Z"/>
  </g>
  <text style="stroke:none;fill:black;font-family:sans-serif;font-size:13;font-weight:bold;" transform="matrix(1 0 0 1 1289 1953)">Exporting</text>
  <text style="stroke:none;fill:black;font-family:sans-serif;font-size:13;" transform="matrix(1 0 0 1 1289 1971)">Symbols should be outlined when exporting to ensure the</text>
  <text style="stroke:none;fill:black;font-family:sans-serif;font-size:13;" transform="matrix(1 0 0 1 1289 1989)">design is preserved when submitting to Xcode.</text>
  <text id="template-version" style="stroke:none;fill:black;font-family:sans-serif;font-size:13;text-anchor:end;" transform="matrix(1 0 0 1 3036 1933)">Template v.3.0</text>
  <text style="stroke:none;fill:black;font-family:sans-serif;font-size:13;text-anchor:end;" transform="matrix(1 0 0 1 3036 1951)">Requires Xcode 13 or greater</text>
  <text id="descriptive-name" style="stroke:none;fill:black;font-family:sans-serif;font-size:13;text-anchor:end;" transform="matrix(1 0 0 1 3036 1969)">Generated from function</text>
  <text style="stroke:none;fill:black;font-family:sans-serif;font-size:13;text-anchor:end;" transform="matrix(1 0 0 1 3036 1987)">Typeset at 100 points</text>
  <text style="stroke:none;fill:black;font-family:sans-serif;font-size:13;" transform="matrix(1 0 0 1 263 726)">Small</text>
  <text style="stroke:none;fill:black;font-family:sans-serif;font-size:13;" transform="matrix(1 0 0 1 263 1156)">Medium</text>
  <text style="stroke:none;fill:black;font-family:sans-serif;font-size:13;" transform="matrix(1 0 0 1 263 1586)">Large</text>
 </g>
 <g id="Guides">
  <g id="H-reference" style="fill:#27AAE1;stroke:none;" transform="matrix(1 0 0 1 339 696)">
   <path d="M0.993347 0L3.6377 0L29.3282-67.1326L30.0301-67.1326L30.0301-70.459L28.1227-70.459ZM11.6882-24.4797L46.9818-24.4797L46.2311-26.7288L12.4382-26.7288ZM55.1193 0L57.7637 0L30.6381-70.459L29.4327-70.459L29.4327-67.1326Z"/>
  </g>
  <line id="Baseline-S" style="fill:none;stroke:#27AAE1;opacity:1;stroke-width:0.5;" x1="263" x2="3036" y1="696" y2="696"/>
  <line id="Capline-S" style="fill:none;stroke:#27AAE1;opacity:1;stroke-width:0.5;" x1="263" x2="3036" y1="625.541" y2="625.541"/>
  <g id="H-reference" style="fill:#27AAE1;stroke:none;" transform="matrix(1 0 0 1 339 1126)">
   <path d="M0.993347 0L3.6377 0L29.3282-67.1326L30.0301-67.1326L30.0301-70.459L28.1227-70.459ZM11.6882-24.4797L46.9818-24.4797L46.2311-26.7288L12.4382-26.7288ZM55.1193 0L57.7637 0L30.6381-70.459L29.4327-70.459L29.4327-67.1326Z"/>
  </g>
  <line id="Baseline-M" style="fill:none;stroke:#27AAE1;opacity:1;stroke-width:0.5;" x1="263" x2="3036" y1="1126" y2="1126"/>
  <line id="Capline-M" style="fill:none;stroke:#27AAE1;opacity:1;stroke-width:0.5;" x1="263" x2="3036" y1="1055.54" y2="1055.54"/>
  <g id="H-reference" style="fill:#27AAE1;stroke:none;" transform="matrix(1 0 0 1 339 1556)">
   <path d="M0.993347 0L3.6377 0L29.3282-67.1326L30.0301-67.1326L30.0301-70.459L28.1227-70.459ZM11.6882-24.4797L46.9818-24.4797L46.2311-26.7288L12.4382-26.7288ZM55.1193 0L57.7637 0L30.6381-70.459L29.4327-70.459L29.4327-67.1326Z"/>
  </g>
  <line id="Baseline-L" style="fill:none;stroke:#27AAE1;opacity:1;stroke-width:0.5;" x1="263" x2="3036" y1="1556" y2="1556"/>
  <line id="Capline-L" style="fill:none;stroke:#27AAE1;opacity:1;stroke-width:0.5;" x1="263" x2="3036" y1="1485.54" y2="1485.54"/>
  <line id="left-margin-Ultralight-S" style="fill:none;stroke:#00AEEF;stroke-width:0.5;opacity:1.0;" x1="503.031" x2="503.031" y1="600.785" y2="720.121"/>
  <line id="right-margin-Ultralight-S" style="fill:none;stroke:#00AEEF;stroke-width:0.5;opacity:1.0;" x1="616.391" x2="616.391" y1="600.785" y2="720.121"/>
  <line id="left-margin-Regular-S" style="fill:none;stroke:#00AEEF;stroke-width:0.5;opacity:1.0;" x1="1388.1" x2="1388.1" y1="600.785" y2="720.121"/>
  <line id="right-margin-Regular-S" style="fill:none;stroke:#00AEEF;stroke-width:0.5;opacity:1.0;" x1="1511.59" x2="1511.59" y1="600.785" y2="720.121"/>
  <line id="left-margin-Black-S" style="fill:none;stroke:#00AEEF;stroke-width:0.5;opacity:1.0;" x1="2852.86" x2="2852.86" y1="600.785" y2="720.121"/>
  <line id="right-margin-Black-S" style="fill:none;stroke:#00AEEF;stroke-width:0.5;opacity:1.0;" x1="3013.94" x2="3013.94" y1="600.785" y2="720.121"/>
 </g>
 <g id="Symbols">
  <g id="Black-S" transform="matrix(1 0 0 1 2852.86 696)">
   <path d="M19.2383-4.83398Q26.9531-4.83398 30.9326-7.91016Q34.9121-10.9863 36.5234-18.6523L39.9902-35.0586L46.4844-35.0586Q48.7793-35.0586 50.3906-36.499Q52.002-37.9395 52.002-40.625Q52.002-43.3105 50.3906-44.751Q48.7793-46.1914 46.4844-46.1914L42.334-46.1914L42.9688-49.2676Q43.5059-51.8066 44.4824-52.7344Q45.459-53.6621 47.5586-53.6621Q48.0469-53.6621 48.4863-53.7109Q48.9258-53.7598 49.3164-53.8086Q54.1504-54.5898 54.1504-58.8379Q54.1504-62.1582 51.8066-63.7695Q49.4629-65.3809 44.6777-65.3809Q36.9629-65.3809 32.9834-62.3047Q29.0039-59.2285 27.3926-51.5625L26.2695-46.1914L21.9727-46.1914Q19.6289-46.1914 18.042-44.751Q16.4551-43.3105 16.4551-40.625Q16.4551-37.9395 18.042-36.499Q19.6289-35.0586 21.9727-35.0586L23.9258-35.0586L20.9473-20.9473Q20.4102-18.4082 19.458-17.4805Q18.5059-16.5527 16.3574-16.5527Q15.9668-16.5527 15.5762-16.5283Q15.1855-16.5039 14.7949-16.4551Q12.207-16.1133 10.9863-14.6729Q9.76562-13.2324 9.76562-11.377Q9.76562-8.10547 12.1338-6.46973Q14.502-4.83398 19.2383-4.83398ZM75.7324-4.83398Q77.7832-4.83398 79.1016-5.95703Q80.4199-7.08008 80.4199-9.0332Q80.4199-10.4004 79.3945-13.2812Q77.1973-19.4336 76.2451-24.585Q75.293-29.7363 75.293-35.1562Q75.293-40.5273 76.2451-45.6543Q77.1973-50.7812 79.3945-56.9336Q80.4199-59.8145 80.4199-61.1816Q80.4199-63.1836 79.1016-64.2822Q77.7832-65.3809 75.7324-65.3809Q73.1934-65.3809 71.1182-64.0381Q69.043-62.6953 67.1387-59.8145Q64.0137-55.1758 62.5-49.0479Q60.9863-42.9199 60.9863-35.1562Q60.9863-27.3438 62.5488-21.2158Q64.1113-15.0879 67.1387-10.4004Q68.9941-7.51953 71.0938-6.17676Q73.1934-4.83398 75.7324-4.83398ZM90.8691-10.8398Q92.8711-10.8398 94.1895-11.6943Q95.5078-12.5488 97.2168-15.1367L104.834-26.8066L105.078-26.8066L113.037-14.7949Q114.355-12.8418 115.601-11.8408Q116.846-10.8398 119.092-10.8398Q122.119-10.8398 124.146-12.5732Q126.172-14.3066 126.172-17.4316Q126.172-19.6289 124.463-22.0215L115.039-34.8145L124.17-46.7773Q126.27-49.5605 126.27-52.0508Q126.27-54.9316 124.39-56.6406Q122.51-58.3496 119.434-58.3496Q117.334-58.3496 115.942-57.2998Q114.551-56.25 112.988-53.8086L105.908-42.8223L105.713-42.8223L98.584-53.8574Q96.9727-56.3477 95.5322-57.3486Q94.0918-58.3496 91.748-58.3496Q88.7695-58.3496 86.7432-56.4941Q84.7168-54.6387 84.7168-51.8066Q84.7168-50.4883 85.1074-49.3652Q85.498-48.2422 86.2793-47.168L95.752-34.4238L86.3281-22.0703Q84.2285-19.3848 84.2285-16.7969Q84.2285-14.1602 86.1084-12.5Q87.9883-10.8398 90.8691-10.8398ZM136.572-4.83398Q139.16-4.83398 141.211-6.20117Q143.262-7.56836 145.166-10.4004Q148.291-15.0391 149.805-21.1914Q151.318-27.3438 151.318-35.1562Q151.318-42.9199 149.756-49.0234Q148.193-55.127 145.166-59.8145Q143.311-62.6953 141.235-64.0381Q139.16-65.3809 136.572-65.3809Q134.521-65.3809 133.203-64.2822Q131.885-63.1836 131.885-61.1816Q131.885-59.8145 132.91-56.9336Q135.107-50.7812 136.06-45.6543Q137.012-40.5273 137.012-35.1562Q137.012-29.7363 136.06-24.585Q135.107-19.4336 132.91-13.2812Q131.885-10.4004 131.885-9.0332Q131.885-7.08008 133.203-5.95703Q134.521-4.83398 136.572-4.83398Z"/>
  </g>
  <g id="Regular-S" transform="matrix(1 0 0 1 1388.1 696)">
   <path d="M15.332-6.98242Q21.1914-6.98242 24.2432-9.74121Q27.2949-12.5 28.6621-19.1895L32.8125-38.9648L39.3555-38.9648Q41.2598-38.9648 42.4072-39.917Q43.5547-40.8691 43.5547-42.5293Q43.5547-43.9453 42.7002-44.7754Q41.8457-45.6055 40.332-45.6055L34.2285-45.6055L35.2051-50.2441Q35.8887-53.6621 37.2559-55.2002Q38.623-56.7383 41.6992-56.7383Q42.1387-56.7383 42.5293-56.7871Q42.9199-56.8359 43.2129-56.8359Q46.3867-57.1777 46.3867-60.0098Q46.3867-61.7676 44.8975-62.6465Q43.4082-63.5254 40.4785-63.5254Q34.7656-63.5254 31.5674-60.5713Q28.3691-57.6172 27.0996-51.3184L25.8789-45.6055L21.7285-45.6055Q19.8242-45.6055 18.6768-44.6533Q17.5293-43.7012 17.5293-42.041Q17.5293-40.625 18.3838-39.7949Q19.2383-38.9648 20.752-38.9648L24.4629-38.9648L20.5566-20.2637Q19.7754-16.6992 18.4082-15.21Q17.041-13.7207 14.0625-13.7207Q13.7207-13.7207 13.4277-13.6963Q13.1348-13.6719 12.8418-13.6719Q11.3281-13.4277 10.5469-12.6221Q9.76562-11.8164 9.76562-10.4492Q9.76562-8.69141 11.1816-7.83691Q12.5977-6.98242 15.332-6.98242ZM61.2305-6.98242Q62.3535-6.98242 63.0615-7.59277Q63.7695-8.20312 63.7695-9.27734Q63.7695-9.96094 63.1348-11.1816Q59.8145-16.748 58.0811-22.8271Q56.3477-28.9062 56.3477-35.2051Q56.3477-41.4551 58.0566-47.6074Q59.7656-53.7598 63.1836-59.2773Q63.7695-60.498 63.7695-61.2305Q63.7695-62.2559 63.0615-62.8906Q62.3535-63.5254 61.2305-63.5254Q60.1562-63.5254 59.2041-62.9395Q58.252-62.3535 57.2266-60.8887Q53.0273-55.3711 50.9521-48.8037Q48.877-42.2363 48.877-35.2539Q48.877-28.2715 50.9521-21.7285Q53.0273-15.1855 57.2266-9.57031Q58.252-8.10547 59.2041-7.54395Q60.1562-6.98242 61.2305-6.98242ZM69.873-17.1387Q70.9473-17.1387 71.7529-17.5537Q72.5586-17.9688 73.3398-19.1406L81.2012-30.1758L81.3477-30.1758L89.3555-18.9453Q90.2344-17.7734 91.0156-17.4561Q91.7969-17.1387 92.5781-17.1387Q94.1406-17.1387 95.0928-18.0908Q96.0449-19.043 96.0449-20.4102Q96.0449-21.6797 95.2637-22.7539L85.8398-35.2539L95.2637-47.7539Q96.0938-48.877 96.0938-50.1953Q96.0938-51.5625 95.0928-52.4658Q94.0918-53.3691 92.7734-53.3691Q91.5527-53.3691 90.8203-52.832Q90.0879-52.2949 89.4531-51.3672L81.9824-40.332L81.7871-40.332L74.2188-51.416Q73.6328-52.3438 72.8027-52.8564Q71.9727-53.3691 70.7031-53.3691Q69.1895-53.3691 68.1641-52.3438Q67.1387-51.3184 67.1387-50Q67.1387-49.0234 67.4072-48.4131Q67.6758-47.8027 68.1152-47.2168L76.9531-35.498L67.4316-22.5586Q66.6992-21.582 66.6992-20.1172Q66.6992-18.8477 67.627-17.9932Q68.5547-17.1387 69.873-17.1387ZM101.367-6.98242Q102.49-6.98242 103.418-7.54395Q104.346-8.10547 105.42-9.57031Q109.619-15.1855 111.67-21.7285Q113.721-28.2715 113.721-35.2539Q113.721-42.2363 111.646-48.8037Q109.57-55.3711 105.42-60.8887Q104.346-62.3535 103.418-62.9395Q102.49-63.5254 101.367-63.5254Q100.244-63.5254 99.5361-62.8906Q98.8281-62.2559 98.8281-61.2305Q98.8281-60.498 99.4629-59.2773Q102.881-53.7598 104.565-47.6074Q106.25-41.4551 106.25-35.2051Q106.25-28.9062 104.517-22.8271Q102.783-16.748 99.4629-11.1816Q98.8281-9.96094 98.8281-9.27734Q98.8281-8.25195 99.5361-7.61719Q100.244-6.98242 101.367-6.98242Z"/>
  </g>
  <g id="Ultralight-S" transform="matrix(1 0 0 1 503.031 696)">
   <path d="M13.2431-7.07321Q17.6949-7.07321 19.9066-9.53674Q22.1184-12.0003 23.2132-17.2821L28.7254-43.3243L37.4481-43.3243Q37.9448-43.3243 38.2294-43.5951Q38.5139-43.866 38.5139-44.3909Q38.5139-44.8532 38.2271-45.1157Q37.9402-45.3781 37.5168-45.3781L29.1878-45.3781L30.7549-52.8328Q31.7108-57.431 33.3504-59.3777Q34.9899-61.3243 38.6566-61.3243Q39.3684-61.3243 40.0089-61.2823Q40.6494-61.2404 40.9882-61.2404Q41.9823-61.2648 41.9823-62.0987Q41.9823-62.812 41.1968-63.1004Q40.4114-63.3888 38.4804-63.3888Q34.0393-63.3888 31.8172-60.9344Q29.5952-58.4801 28.5072-53.1799L26.8326-45.3781L19.3672-45.3781Q18.8705-45.3781 18.5406-45.1073Q18.2106-44.8364 18.2106-44.3565Q18.2106-43.8942 18.52-43.6092Q18.8293-43.3243 19.2986-43.3243L26.4153-43.3243L20.9656-17.63Q20.0027-13.0211 18.3628-11.0779Q16.7229-9.13467 13.1088-9.13467Q12.3581-9.13467 11.7249-9.17816Q11.0916-9.22165 10.7529-9.22165Q10.2386-9.20486 10.0021-8.96683Q9.76562-8.72879 9.76562-8.36029Q9.76562-7.64694 10.5457-7.36008Q11.3258-7.07321 13.2431-7.07321ZM58.0521-6.75507Q58.3572-6.75507 58.6113-6.95686Q58.8654-7.15866 58.8654-7.50656Q58.8654-7.87201 58.5487-8.2756Q54.3655-13.2057 51.6331-19.7617Q48.9006-26.3176 48.9006-35.0685Q48.9006-42.6811 51.4271-49.8779Q53.9536-57.0747 58.5976-62.0476Q58.8654-62.3596 58.8654-62.7289Q58.8654-63.073 58.6113-63.2763Q58.3572-63.4796 58.0521-63.4796Q57.7492-63.4796 57.5237-63.3251Q57.2983-63.1706 56.9542-62.841Q52.0287-57.6416 49.4083-50.5066Q46.788-43.3716 46.788-35.0723Q46.788-26.7731 49.2493-20.0485Q51.7105-13.324 56.9542-7.43637Q57.2533-7.10678 57.5012-6.93092Q57.7492-6.75507 58.0521-6.75507ZM63.3339-16.9113Q63.6818-16.9113 63.9198-17.054Q64.1579-17.1967 64.4394-17.5964L75.2975-33.7181L75.399-33.7181L86.4037-17.4469Q86.6013-17.1379 86.8378-17.0246Q87.0743-16.9113 87.4016-16.9113Q87.8738-16.9113 88.1676-17.2279Q88.4613-17.5446 88.4613-17.9581Q88.4613-18.3197 88.2248-18.7126L76.7128-35.5721L88.0432-51.432Q88.4193-51.9646 88.4193-52.375Q88.4193-52.8343 88.0768-53.1017Q87.7342-53.3691 87.3245-53.3691Q87.0117-53.3691 86.7561-53.1727Q86.5005-52.9762 86.1839-52.5482L75.4433-37.2444L75.3387-37.2444L64.592-52.5513Q64.3242-52.9793 64.0842-53.1742Q63.8443-53.3691 63.4827-53.3691Q62.9684-53.3691 62.6694-53.0704Q62.3703-52.7718 62.3703-52.3613Q62.3703-52.066 62.4802-51.8417Q62.59-51.6174 62.7571-51.3489L74.0471-35.5888L62.5725-18.6989Q62.249-18.2671 62.249-17.8925Q62.249-17.44 62.5637-17.1757Q62.8784-16.9113 63.3339-16.9113ZM92.3309-6.75507Q92.6361-6.75507 92.8829-6.93092Q93.1297-7.10678 93.4319-7.43637Q98.6755-13.324 101.135-20.0485Q103.594-26.7731 103.594-35.0723Q103.594-43.3716 100.997-50.5066Q98.3994-57.6416 93.4319-62.841Q93.1297-63.1706 92.8829-63.3251Q92.6361-63.4796 92.3309-63.4796Q92.025-63.4796 91.7938-63.2763Q91.5627-63.073 91.5627-62.7289Q91.5627-62.3596 91.7885-62.0476Q96.4325-57.0747 98.9571-49.8779Q101.482-42.6811 101.482-35.0685Q101.482-26.3176 98.7495-19.7617Q96.0175-13.2057 91.8343-8.2756Q91.5627-7.87201 91.5627-7.50656Q91.5627-7.16248 91.7938-6.95877Q92.025-6.75507 92.3309-6.75507Z"/>
  </g>
 </g>
</svg>
